<svg width="383" height="72" viewBox="0 0 383 72" xmlns="http://www.w3.org/2000/svg">
  <defs>
    <linearGradient x1="15.72%" y1="50%" y2="91.581%" id="a">
      <stop stop-color="#FF606D" offset="0%"/>
      <stop stop-color="#FFB346" offset="54.493%"/>
      <stop stop-color="#E879BF" offset="100%"/>
    </linearGradient>
  </defs>
  <g fill="none" fill-rule="evenodd">
    <path fill="#000" d="M304 70.853h5.445l33.615-59.255 33.614 59.255h5.445L343.059 2z"/>
    <path fill="url(#a)" d="M66 70.853h5.445l33.615-59.255 33.614 59.255h5.446L105.06 2z"/>
    <path d="M233.5 5.707c18.841 0 30.725 13.371 30.725 29.696v.196c0 16.421-11.884 29.5-30.724 29.5h-17.492V5.708h17.492zm-22.5 64.1h22.5c21.257 0 35.93-15.033 35.93-34.404v-.195C269.43 15.833 254.758 1 233.5 1H211v68.806zM33.604 71.166c11.979 0 19.708-4.806 26.854-11.984l-3.38-3.344c-6.86 6.885-13.524 10.721-23.281 10.721-16.132 0-28.592-13.57-28.592-30.974v-.2c0-17.306 12.268-30.777 28.497-30.777 10.142 0 16.904 4.326 22.795 10.13l3.577-3.736C53.117 4.512 45.872 0 33.797 0 14.284 0 0 16.114 0 35.585v.196c0 19.766 14.284 35.385 33.604 35.385M286 70.806h5.01V2H286zM188.416 1l-21.985 38.755L144.446 1H139l24.926 43.938V70.73h5.01V44.939L193.86 1z" fill="#000"/>
  </g>
</svg>
