<svg width="382" height="71" viewBox="0 0 382 71" xmlns="http://www.w3.org/2000/svg">
  <defs>
    <linearGradient x1="15.72%" y1="50%" y2="91.581%" id="a">
      <stop stop-color="#FF606D" offset="0%"/>
      <stop stop-color="#FFB346" offset="54.493%"/>
      <stop stop-color="#E879BF" offset="100%"/>
    </linearGradient>
  </defs>
  <g fill="none" fill-rule="evenodd">
    <path fill="#000" d="M304 71h5.437L343 11.619 376.563 71H382L343 2z"/>
    <path fill="url(#a)" d="M66 71h5.436L105 11.619 138.563 71H144L105 2z"/>
    <path d="M233.335 5.72c18.702 0 30.497 13.41 30.497 29.78v.196c0 16.467-11.795 29.584-30.497 29.584h-17.363V5.72h17.363zM211 70h22.335C254.435 70 269 54.925 269 35.5v-.196C269 15.874 254.435 1 233.335 1H211v69zM33.35 71C45.237 71 52.908 66.205 60 59.044l-3.355-3.336c-6.808 6.869-13.421 10.696-23.105 10.696-16.009 0-28.374-13.54-28.374-30.902v-.2c0-17.265 12.175-30.705 28.28-30.705 10.066 0 16.777 4.316 22.622 10.106l3.55-3.727C52.714 4.5 45.524 0 33.54 0 14.176 0 0 16.077 0 35.502v.195C0 55.417 14.176 71 33.35 71M285 71h5V2h-5zM188.541 1l-22.04 38.906L144.46 1H139l24.99 44.108V71h5.021V45.109L194 1z" fill="#000"/>
  </g>
</svg>
