<?xml version="1.0" encoding="UTF-8"?>
<svg width="383px" height="72px" viewBox="0 0 383 72" version="1.1" xmlns="http://www.w3.org/2000/svg" xmlns:xlink="http://www.w3.org/1999/xlink">
    <!-- Generator: Sketch 50 (54983) - http://www.bohemiancoding.com/sketch -->
    <title>Group 11</title>
    <desc>Created with Sketch.</desc>
    <defs>
        <linearGradient x1="15.72045%" y1="50%" x2="100%" y2="91.5811915%" id="linearGradient-1">
            <stop stop-color="#FF606D" offset="0%"></stop>
            <stop stop-color="#FFB346" offset="54.4934959%"></stop>
            <stop stop-color="#E879BF" offset="100%"></stop>
        </linearGradient>
    </defs>
    <g id="Symbols" stroke="none" stroke-width="1" fill="none" fill-rule="evenodd">
        <g id="big-logo-nav_black-text" transform="translate(-754.000000, -27.000000)">
            <g id="Group-11" transform="translate(754.000000, 27.000000)">
                <polygon id="Fill-1" fill="#000000" points="304 70.8526351 309.444827 70.8526351 343.059967 11.5981548 376.6742 70.8526351 382.119027 70.8526351 343.05906 2"></polygon>
                <polygon id="Fill-2" fill="url(#linearGradient-1)" points="66 70.8526351 71.4448272 70.8526351 105.059967 11.5981548 138.6742 70.8526351 144.119934 70.8526351 105.059967 2"></polygon>
                <path d="M233.500508,5.70675195 C252.341497,5.70675195 264.224501,19.0782483 264.224501,35.4032362 L264.224501,35.5989662 C264.224501,52.0199725 252.341497,65.0997204 233.500508,65.0997204 L216.009386,65.0997204 L216.009386,5.70675195 L233.500508,5.70675195 Z M211,69.8064724 L233.500508,69.8064724 C254.757287,69.8064724 269.430743,54.774041 269.430743,35.4032362 L269.430743,35.2075062 C269.430743,15.8330084 254.757287,1 233.500508,1 L211,1 L211,69.8064724 Z" id="Fill-3" fill="#000000"></path>
                <path d="M33.604254,71.1663111 C45.5825109,71.1663111 53.3124963,66.3598477 60.458265,59.1824664 L57.0772469,55.8384382 C50.2181435,62.7231478 43.5540815,66.5592707 33.7965738,66.5592707 C17.6652981,66.5592707 5.2053346,52.9883513 5.2053346,35.5850021 L5.2053346,35.3855791 C5.2053346,18.0791716 17.4729784,4.60796371 33.7022283,4.60796371 C43.8443755,4.60796371 50.6064118,8.93433477 56.4966588,14.7379132 L60.0736254,11.0015018 C53.1165479,4.51194523 45.8718978,0 33.7965738,0 C14.28428,0 0,16.1144858 0,35.5850021 L0,35.780732 C0,55.5466898 14.28428,71.1663111 33.604254,71.1663111" id="Fill-5" fill="#000000"></path>
                <polygon id="Fill-8" fill="#000000" points="286 70.8064724 291.009386 70.8064724 291.009386 2 286 2"></polygon>
                <polygon id="Fill-9" fill="#000000" points="188.416206 1 166.43097 39.7554584 144.445734 1 139 1 163.926277 44.9376864 163.926277 70.729727 168.935663 70.729727 168.935663 44.9386097 193.861033 1"></polygon>
            </g>
        </g>
    </g>
</svg>