<?xml version="1.0" encoding="UTF-8"?>
<svg width="30px" height="26px" viewBox="0 0 30 26" version="1.1" xmlns="http://www.w3.org/2000/svg" xmlns:xlink="http://www.w3.org/1999/xlink">
    <!-- Generator: Sketch 50 (54983) - http://www.bohemiancoding.com/sketch -->
    <title>HEART</title>
    <desc>Created with Sketch.</desc>
    <defs></defs>
    <g id="Symbols" stroke="none" stroke-width="1" fill="none" fill-rule="evenodd" stroke-linecap="round" stroke-linejoin="round">
        <g id="favorites-dark" transform="translate(1.000000, 1.000000)" stroke="#000000" stroke-width="1.5">
            <path d="M25.9818985,11.7408197 C28.0004074,9.0872234 28.1281497,5.35506562 26.0435047,2.73272536 C24.0721064,0.252622936 20.6090227,-0.674187943 17.6655149,0.5135433 C15.9690795,1.19755328 14.5698034,2.53205223 13.798367,4.18998371 C12.1078205,0.555671067 7.6277816,-1.04065422 4.02744295,0.735959791 C0.403096017,2.52389847 -1.0795296,7.1017825 0.848834973,10.6704121 C1.40419672,11.698692 2.21459001,12.3944796 3.03223108,13.1985311 C3.58079803,13.7371323 4.12891199,14.2757336 4.67702595,14.8147878 C6.5238529,16.6289997 8.37067986,18.4436646 10.2170538,20.2578765 C11.4863227,21.505402 12.7555915,22.7524745 14.0248604,24 C15.3416929,22.6568943 16.6589783,21.3142416 17.9758108,19.9715889 C19.9798241,17.9286187 21.9136245,15.8145295 23.9873979,13.8426782 C24.6890743,13.1754288 25.4211009,12.4728463 25.9818985,11.7408197 Z" id="HEART"></path>
        </g>
    </g>
</svg>