<?xml version="1.0" encoding="UTF-8"?>
<svg width="69px" height="13px" viewBox="0 0 69 13" version="1.1" xmlns="http://www.w3.org/2000/svg" xmlns:xlink="http://www.w3.org/1999/xlink">
    <!-- Generator: Sketch 50 (54983) - http://www.bohemiancoding.com/sketch -->
    <title>Group 11</title>
    <desc>Created with Sketch.</desc>
    <defs></defs>
    <g id="Symbols" stroke="none" stroke-width="1" fill="none" fill-rule="evenodd">
        <g id="top-nav" transform="translate(-202.000000, -15.000000)" fill="#000000">
            <g id="Group-11" transform="translate(202.000000, 15.000000)">
                <polygon id="Fill-1" points="54.8888889 12.7928369 55.8719827 12.7928369 61.941383 2.09411129 68.0106195 12.7928369 68.9937133 12.7928369 61.9412192 0.361111111"></polygon>
                <polygon id="Fill-2" points="11.9166667 12.7928369 12.8997605 12.7928369 18.9691608 2.09411129 25.0383972 12.7928369 26.0216548 12.7928369 18.9691608 0.361111111"></polygon>
                <path d="M42.1598139,1.03038577 C45.5616591,1.03038577 47.7072016,3.44468373 47.7072016,6.39225098 L47.7072016,6.42759111 C47.7072016,9.39249503 45.5616591,11.7541162 42.1598139,11.7541162 L39.0016947,11.7541162 L39.0016947,1.03038577 L42.1598139,1.03038577 Z M38.0972222,12.6039464 L42.1598139,12.6039464 C45.9978435,12.6039464 48.6472174,9.88975739 48.6472174,6.39225098 L48.6472174,6.35691084 C48.6472174,2.85873763 45.9978435,0.180555556 42.1598139,0.180555556 L38.0972222,0.180555556 L38.0972222,12.6039464 Z" id="Fill-3"></path>
                <path d="M6.06743476,12.8494728 C8.23017559,12.8494728 9.62586739,11.9816392 10.9160756,10.6857231 L10.305614,10.0819402 C9.0671648,11.3250128 7.86393138,12.0176461 6.10215916,12.0176461 C3.18956772,12.0176461 0.939852081,9.5673412 0.939852081,6.42506982 L0.939852081,6.38906289 C0.939852081,3.26429487 3.15484331,0.831993448 6.08512455,0.831993448 C7.91634558,0.831993448 9.13726879,1.61314378 10.2007856,2.6610121 L10.8466268,1.98638227 C9.59048781,0.814656778 8.28242599,0 6.10215916,0 C2.57910611,0 0,2.90955994 0,6.42506982 L0,6.46040995 C0,10.0292634 2.57910611,12.8494728 6.06743476,12.8494728" id="Fill-5"></path>
                <polygon id="Fill-8" points="51.6388889 12.784502 52.5433614 12.784502 52.5433614 0.361111111 51.6388889 0.361111111"></polygon>
                <polygon id="Fill-9" points="34.0195928 0.180555556 30.0500363 7.17806887 26.0804798 0.180555556 25.0972222 0.180555556 29.5978001 8.11374894 29.5978001 12.7706451 30.5022726 12.7706451 30.5022726 8.11391564 35.0026866 0.180555556"></polygon>
            </g>
        </g>
    </g>
</svg>