<?xml version="1.0" encoding="UTF-8"?>
<svg width="140px" height="13px" viewBox="0 0 140 13" version="1.1" xmlns="http://www.w3.org/2000/svg" xmlns:xlink="http://www.w3.org/1999/xlink">
    <!-- Generator: Sketch 50 (54983) - http://www.bohemiancoding.com/sketch -->
    <title>small c&amp;c</title>
    <desc>Created with Sketch.</desc>
    <defs></defs>
    <g id="Symbols" stroke="none" stroke-width="1" fill="none" fill-rule="evenodd">
        <g id="top-nav" transform="translate(-20.000000, -15.000000)" fill="#1F2221">
            <g id="small-c&amp;c" transform="translate(20.000000, 15.000000)">
                <path d="M30.6534641,5.45219528 L30.6534641,1.27220317 L31.6516579,1.27220317 C32.5557993,1.27220317 32.9703264,1.66180174 32.9703264,2.44136299 L32.9703264,4.26555815 C32.9703264,5.02727797 32.5557993,5.45219528 31.6516579,5.45219528 L30.6534641,5.45219528 Z M34.6237905,4.14139636 L34.6237905,2.49452317 C34.6237905,0.918651576 33.834602,0 31.8397626,0 L29,0 L29,12 L30.6534641,12 L30.6534641,6.22920776 L33.2331312,12 L35,12 L32.5000645,6.49464454 C34.0037415,6.31732257 34.6237905,5.52283278 34.6237905,4.14139636 Z" id="Fill-1"></path>
                <polygon id="Fill-3" points="39.839318 0 38 0 38 12 43 12 43 10.7277968 39.839318 10.7277968"></polygon>
                <polygon id="Fill-5" points="46 12 51 12 51 10.7277968 47.6840114 10.7277968 47.6840114 6.52996329 50.0799432 6.52996329 50.0799432 5.27523743 47.6840114 5.27523743 47.6840114 1.27220317 51 1.27220317 51 0 46 0"></polygon>
                <path d="M138.356923,9.15192524 C138.356923,10.05492 137.945,10.7277968 136.785,10.7277968 L135.642692,10.7277968 L135.642692,1.27256728 L136.785,1.27256728 C137.945,1.27256728 138.356923,1.94544406 138.356923,2.83059745 L138.356923,9.15192524 Z M136.990385,0 L134,0 L134,12 L136.990385,12 C139.215769,12 140,10.6393179 140,8.88648845 L140,3.11387566 C140,1.34356889 139.215769,0 136.990385,0 Z" id="Fill-7"></path>
                <path d="M21.3334645,8.21397579 L22.4238574,2.56443244 L22.4427455,2.56443244 L23.532745,8.21397579 L21.3334645,8.21397579 Z M21.5054247,0 L19,12 L20.6062735,12 L21.0847715,9.48617896 L23.781438,9.48617896 L24.278824,12 L26,12 L23.4752937,0 L21.5054247,0 Z" id="Fill-11"></path>
                <path d="M117.333465,8.21397579 L118.423464,2.56443244 L118.442746,2.56443244 L119.532745,8.21397579 L117.333465,8.21397579 Z M117.505818,0 L115,12 L116.606667,12 L117.084771,9.48617896 L119.781438,9.48617896 L120.278824,12 L122,12 L119.475294,0 L117.505818,0 Z" id="Fill-13"></path>
                <polygon id="Fill-15" points="13.3223761 5.25719141 10.6582115 5.25719141 10.6582115 0 9 0 9 12 10.6582115 12 10.6582115 6.52943318 13.3223761 6.52943318 13.3223761 12 15 12 15 0 13.3223761 0"></polygon>
                <polygon id="Fill-17" points="101.83916 0 100 0 100 12 105 12 105 10.7277968 101.83916 10.7277968"></polygon>
                <path d="M94.3968979,9.93947142 C94.3968979,10.8979398 93.9773594,11.6307043 92.9915567,11.6307043 C92.0233911,11.6307043 91.6038526,10.8979398 91.6038526,9.93947142 L91.6038526,3.06052858 C91.6038526,2.10206023 92.0233911,1.36929572 92.9915567,1.36929572 C93.9773594,1.36929572 94.3968979,2.10206023 94.3968979,3.06052858 L94.3968979,9.93947142 Z M92.9915567,0 C90.9111264,0 90,1.42572168 90,3.30478342 L90,9.69521658 C90,11.5557273 90.9111264,13 92.9915567,13 C95.1080118,13 96,11.5557273 96,9.69521658 L96,3.30478342 C96,1.42572168 95.1080118,0 92.9915567,0 Z" id="Fill-19"></path>
                <polygon id="Fill-21" points="109.558333 9.20362897 109.539023 9.20362897 107.739943 0 106 0 108.561437 12 110.457874 12 113 0 111.377126 0"></polygon>
                <path d="M126.653077,5.45219528 L126.653077,1.27220317 L127.651271,1.27220317 C128.555799,1.27220317 128.969939,1.66180174 128.969939,2.44136299 L128.969939,4.26555815 C128.969939,5.02727797 128.555799,5.45219528 127.651271,5.45219528 L126.653077,5.45219528 Z M130.624178,4.14139636 L130.624178,2.49452317 C130.624178,0.918651576 129.834602,0 127.839763,0 L125,0 L125,12 L126.653077,12 L126.653077,6.22920776 L129.233131,12 L131,12 L128.499677,6.49464454 C130.003741,6.31732257 130.624178,5.52283278 130.624178,4.14139636 Z" id="Fill-23"></path>
                <path d="M84.0957342,0 C81.8971889,0 81,1.42567929 81,3.30507165 L81,9.69492835 C81,11.5553838 81.8971889,13 84.0957342,13 C86.312758,13 87,11.6867828 87,9.93917593 L87,7.75911172 L85.4540987,7.75911172 L85.4540987,10.0520245 C85.4540987,10.9915274 85.1666994,11.630745 84.114999,11.630745 C83.0817771,11.630745 82.6799685,10.8976158 82.6799685,9.93917593 L82.6799685,3.06082407 C82.6799685,2.10238421 83.0817771,1.36925501 84.114999,1.36925501 C85.1666994,1.36925501 85.4348339,1.95204828 85.4348339,2.9479755 L85.4348339,4.5637969 L87,4.5637969 L87,3.06082407 C87,1.237856 86.3890309,0 84.0957342,0" id="Fill-25"></path>
                <path d="M3.09573422,0 C0.897188913,0 0,1.42567929 0,3.30507165 L0,9.69492835 C0,11.5553838 0.897188913,13 3.09573422,13 C5.31275801,13 6,11.6867828 6,9.93917593 L6,7.75911172 L4.45409868,7.75911172 L4.45409868,10.0520245 C4.45409868,10.9915274 4.16669943,11.630745 3.11499902,11.630745 C2.08177708,11.630745 1.67996855,10.8976158 1.67996855,9.93917593 L1.67996855,3.06082407 C1.67996855,2.10238421 2.08177708,1.36925501 3.11499902,1.36925501 C4.16669943,1.36925501 4.43483389,1.95204828 4.43483389,2.9479755 L4.43483389,4.5637969 L6,4.5637969 L6,3.06082407 C6,1.237856 5.38903086,0 3.09573422,0" id="Fill-25-Copy"></path>
                <path d="M56.8639894,4.95876687 C56.1084633,4.24457459 55.6436774,3.77501635 55.6436774,2.96652595 L55.6436774,2.60942981 C55.6436774,1.76383852 56.1662131,1.33138118 56.96077,1.33138118 C57.8337869,1.33138118 58.2790574,1.74528807 58.2790574,2.64730364 L58.2790574,3.90641536 L59.8450714,3.90641536 L59.8450714,2.70334146 C59.8450714,0.956507521 58.9752406,0 56.9416528,0 C55.0052439,0 54.037836,1.08790653 54.037836,2.62836673 L54.037836,3.07937452 C54.037836,4.47027172 54.6181215,5.18407753 55.8567541,6.36860099 L57.1742449,7.62771271 C57.9883173,8.37900589 58.31769,8.84933706 58.31769,9.69492835 L58.31769,10.2773352 C58.31769,11.0854391 57.9106538,11.6682324 57.0001991,11.6682324 C56.0304016,11.6682324 55.6042483,11.1418634 55.6042483,10.2773352 L55.6042483,8.41687972 L54,8.41687972 L54,10.2398478 C54,11.8556692 54.8889479,13 56.9802854,13 C59.071623,13 60,11.7996314 60,10.1834235 L60,9.52565551 C60,8.13475831 59.4197146,7.43950294 58.2400266,6.27430287 L56.8639894,4.95876687 Z" id="Fill-27"></path>
                <path d="M70.2867936,11.6371529 C69.4186762,11.6371529 68.4886667,11.1505322 68.4487626,10.1772908 L68.4487626,7.0183148 C68.4719721,6.8200333 68.7248337,6.66929298 69.0326652,6.66967949 L71.9240827,10.2128501 C71.8951726,11.1837724 71.1382165,11.6371529 70.2867936,11.6371529 Z M73.4155997,5.64425879 L71.9293761,5.64425879 L71.9293761,8.09862044 C70.0941954,5.81200571 69.5253585,4.83373967 69.5253585,4.83373967 C68.9508212,3.84812987 68.7964982,3.63129571 68.7964982,2.82696081 L68.7964982,2.47136826 C68.7964982,1.62954154 69.4703886,1.32574181 70.2790571,1.32574181 C71.1667194,1.32574181 71.5124191,1.73737884 71.5124191,2.63563656 L71.5124191,3.88910032 L73.1061394,3.88910032 L73.1061394,2.69168104 C73.1061394,1.17190938 72.3292313,0 70.2599195,0 C68.2891463,0 67.1873049,0.956621276 67.1873049,2.49030743 L67.1873049,2.93943628 C67.2813645,3.96833561 67.6054834,4.59603378 68.0863684,5.32925016 C67.3432566,5.62957127 67,6.21939109 67,7.11069156 L67,10.19623 C67,11.9919724 68.2675655,13 70.1984346,13 C71.6528978,13 72.6191467,12.5446869 73.0861874,11.6367664 L74.0911189,12.8678123 L76,12.8678123 C74.9987332,11.7492418 74.1460888,10.7655646 73.4155997,9.90132009 L73.4155997,5.64425879 Z" id="Fill-29"></path>
            </g>
        </g>
    </g>
</svg>